<svg width="512" height="512" viewBox="0 0 512 512" fill="none" xmlns="http://www.w3.org/2000/svg">
  <defs>
    <linearGradient id="brainGrad" x1="96" y1="112" x2="344" y2="360" gradientUnits="userSpaceOnUse">
      <stop stop-color="#69D8F6"/>
      <stop offset="0.52" stop-color="#2D74EB"/>
      <stop offset="1" stop-color="#1D38C9"/>
    </linearGradient>
    <linearGradient id="bookGrad" x1="252" y1="120" x2="424" y2="328" gradientUnits="userSpaceOnUse">
      <stop stop-color="#6DE1F7"/>
      <stop offset="0.58" stop-color="#2E76EC"/>
      <stop offset="1" stop-color="#2140CF"/>
    </linearGradient>
    <linearGradient id="wordGrad" x1="96" y1="372" x2="400" y2="456" gradientUnits="userSpaceOnUse">
      <stop stop-color="#6CDCF7"/>
      <stop offset="0.52" stop-color="#2C74EB"/>
      <stop offset="1" stop-color="#1E37C8"/>
    </linearGradient>
    <filter id="softGlow" x="-20%" y="-20%" width="140%" height="140%">
      <feDropShadow dx="0" dy="12" stdDeviation="14" flood-color="#1F7A8C" flood-opacity="0.14"/>
    </filter>
  </defs>

  <rect width="512" height="512" fill="#E6F3FD"/>

  <g transform="translate(-25 -25) scale(1.1)" filter="url(#softGlow)">
    <path
      d="M171 145C191 127 217 118 246 118H258V292H237C211 292 188 280 171 261C152 266 133 258 122 242C110 226 110 204 121 188C118 162 136 145 171 145Z"
      fill="url(#brainGrad)"
    />
    <path
      d="M258 118H281C307 118 332 126 350 142V292H281C268 292 258 282 258 269V118Z"
      fill="url(#bookGrad)"
    />
    <path
      d="M280 132C318 132 352 145 379 170V289C346 290 314 299 286 318C281 321 275 317 275 311V151C275 140 269 132 258 132H280Z"
      fill="url(#bookGrad)"
      opacity="0.95"
    />
    <path
      d="M374 170C403 170 428 175 448 186V289C420 289 392 296 367 309C361 313 354 308 355 301C357 254 369 211 391 186L374 170Z"
      fill="url(#bookGrad)"
      opacity="0.88"
    />

    <g fill="#F5FCFF">
      <circle cx="171" cy="170" r="12"/>
      <circle cx="141" cy="210" r="12"/>
      <circle cx="156" cy="256" r="12"/>
      <circle cx="217" cy="214" r="14"/>
      <circle cx="223" cy="276" r="13"/>
      <circle cx="270" cy="170" r="11"/>
      <circle cx="310" cy="190" r="11"/>
      <circle cx="296" cy="248" r="11"/>
    </g>

    <g stroke="#F5FCFF" stroke-width="4.5" stroke-linecap="round" opacity="0.95">
      <path d="M171 170L217 214"/>
      <path d="M141 210L217 214"/>
      <path d="M156 256L223 276"/>
      <path d="M217 214L223 276"/>
      <path d="M217 214L270 170"/>
      <path d="M270 170L310 190"/>
      <path d="M223 276L296 248"/>
      <path d="M217 214L296 248"/>
    </g>

    <path d="M184 264L171 277" stroke="#6EE3FF" stroke-width="6" stroke-linecap="round"/>

    <path
      d="M286 178C321 182 352 197 375 222"
      stroke="#F5FCFF"
      stroke-width="6"
      stroke-linecap="round"
      opacity="0.88"
    />
    <path
      d="M286 228C324 229 360 239 393 258"
      stroke="#F5FCFF"
      stroke-width="6"
      stroke-linecap="round"
      opacity="0.88"
    />
    <path
      d="M286 260C326 261 363 271 399 292"
      stroke="#F5FCFF"
      stroke-width="6"
      stroke-linecap="round"
      opacity="0.88"
    />

    <text
      x="256"
      y="418"
      text-anchor="middle"
      font-family="'Avenir Next', 'SF Pro Display', 'Helvetica Neue', Arial, sans-serif"
      font-size="78"
      font-weight="800"
      letter-spacing="-2"
      fill="url(#wordGrad)"
    >EduMind</text>
  </g>
</svg>
