<svg width="1440" height="3200" viewBox="0 0 1440 3200" fill="none" xmlns="http://www.w3.org/2000/svg">
  <rect width="1440" height="3200" fill="#F4ECE4"/>
  <rect x="-120" y="120" width="780" height="780" rx="240" fill="#E1D1E9"/>
  <rect x="834" y="180" width="540" height="720" rx="220" fill="#E0C58C"/>
  <rect x="948" y="1260" width="520" height="760" rx="220" fill="#DDD0E5"/>
  <rect x="-80" y="1500" width="760" height="820" rx="260" fill="#E8DACA"/>
  <rect x="760" y="2430" width="620" height="620" rx="230" fill="#D7BB7F"/>
  <rect x="-90" y="2550" width="700" height="540" rx="210" fill="#DCCEE4"/>
  <g opacity="0.55">
    <path d="M-40 480C210 280 462 268 664 398C860 524 1104 548 1328 434C1410 392 1478 360 1540 330V542C1368 620 1174 676 964 622C788 576 632 470 442 448C252 426 112 470 -40 622V480Z" fill="#CDB0D8"/>
    <path d="M-60 1180C196 996 432 998 646 1126C842 1242 1090 1270 1308 1160C1388 1120 1458 1082 1520 1044V1232C1342 1318 1154 1362 958 1320C772 1282 610 1204 430 1196C254 1188 96 1234 -60 1358V1180Z" fill="#E2C782"/>
    <path d="M-40 2116C202 1960 452 1970 662 2092C876 2216 1118 2240 1332 2144C1404 2112 1468 2076 1526 2042V2236C1338 2320 1158 2352 970 2310C766 2266 600 2190 412 2180C242 2170 102 2206 -40 2312V2116Z" fill="#D0BDD9"/>
  </g>
  <g opacity="0.34" stroke="#8B799D" stroke-width="10" stroke-linecap="round">
    <path d="M104 284C252 206 404 218 524 296C664 390 814 430 952 414"/>
    <path d="M890 1038C1062 946 1214 956 1348 1040"/>
    <path d="M112 1702C276 1616 432 1628 570 1708C720 1796 864 1828 1024 1812"/>
    <path d="M840 2706C1004 2610 1182 2638 1364 2764"/>
  </g>
  <g opacity="0.28" stroke="#C8AB6C" stroke-width="8" stroke-linecap="round">
    <path d="M818 336C988 258 1178 286 1344 418"/>
    <path d="M108 1018C298 930 500 962 676 1090"/>
    <path d="M882 1512C1038 1426 1194 1440 1350 1546"/>
    <path d="M118 2486C282 2398 458 2422 618 2530"/>
  </g>
  <g opacity="0.46">
    <circle cx="1132" cy="292" r="18" fill="#8B799D"/>
    <circle cx="1186" cy="292" r="18" fill="#8B799D"/>
    <circle cx="1240" cy="292" r="18" fill="#8B799D"/>
    <circle cx="1288" cy="292" r="18" fill="#8B799D"/>
    <circle cx="212" cy="930" r="16" fill="#C8AB6C"/>
    <circle cx="262" cy="930" r="16" fill="#C8AB6C"/>
    <circle cx="312" cy="930" r="16" fill="#C8AB6C"/>
    <circle cx="1002" cy="1458" r="16" fill="#8B799D"/>
    <circle cx="1054" cy="1458" r="16" fill="#8B799D"/>
    <circle cx="1106" cy="1458" r="16" fill="#8B799D"/>
    <circle cx="294" cy="2600" r="16" fill="#C8AB6C"/>
    <circle cx="344" cy="2600" r="16" fill="#C8AB6C"/>
    <circle cx="394" cy="2600" r="16" fill="#C8AB6C"/>
  </g>
</svg>
